<mxfile host="app.diagrams.net" modified="2022-03-22T13:54:30.872Z" agent="5.0 (Windows NT 10.0; Win64; x64) AppleWebKit/537.36 (KHTML, like Gecko) Chrome/99.0.4844.74 Safari/537.36" etag="H8zql844ONRAnwYrKinK" version="17.1.3" type="github">
  <diagram id="PeAHsRS-UC3fdz-MigEF" name="Page-1">
    <mxGraphModel dx="2370" dy="1257" grid="1" gridSize="10" guides="1" tooltips="1" connect="1" arrows="1" fold="1" page="1" pageScale="1" pageWidth="2336" pageHeight="1654" background="none" math="0" shadow="0">
      <root>
        <mxCell id="0" />
        <mxCell id="1" parent="0" />
        <mxCell id="ShHbmUVOXLzFGARK76cm-1" value="Framework" style="whiteSpace=wrap;html=1;align=left;verticalAlign=top;" vertex="1" parent="1">
          <mxGeometry x="50" y="90" width="310" height="30" as="geometry" />
        </mxCell>
        <mxCell id="ShHbmUVOXLzFGARK76cm-12" value="getPageByNameCode" style="rounded=0;whiteSpace=wrap;html=1;" vertex="1" parent="1">
          <mxGeometry x="120" y="750" width="230" height="60" as="geometry" />
        </mxCell>
        <mxCell id="ShHbmUVOXLzFGARK76cm-14" value="dataTabel.xml" style="rounded=0;whiteSpace=wrap;html=1;verticalAlign=top;" vertex="1" parent="1">
          <mxGeometry x="70" y="140" width="260" height="260" as="geometry" />
        </mxCell>
        <mxCell id="ShHbmUVOXLzFGARK76cm-8" value="isLinkAvailable(rowEntityMap)" style="rounded=1;whiteSpace=wrap;html=1;" vertex="1" parent="1">
          <mxGeometry x="85" y="380" width="175" height="20" as="geometry" />
        </mxCell>
        <mxCell id="ShHbmUVOXLzFGARK76cm-9" value="getOutputLink(rowEntityMap)" style="rounded=1;whiteSpace=wrap;html=1;" vertex="1" parent="1">
          <mxGeometry x="85" y="350" width="175" height="20" as="geometry" />
        </mxCell>
        <mxCell id="ShHbmUVOXLzFGARK76cm-10" value="OutputLink" style="rounded=1;whiteSpace=wrap;html=1;" vertex="1" parent="1">
          <mxGeometry x="70" y="320" width="120" height="20" as="geometry" />
        </mxCell>
        <mxCell id="ShHbmUVOXLzFGARK76cm-6" value="download" style="rounded=1;whiteSpace=wrap;html=1;" vertex="1" parent="1">
          <mxGeometry x="70" y="160" width="120" height="20" as="geometry" />
        </mxCell>
        <mxCell id="ShHbmUVOXLzFGARK76cm-7" value="isAllowedToDownload(rowEntityMap)" style="rounded=1;whiteSpace=wrap;html=1;" vertex="1" parent="1">
          <mxGeometry x="85" y="190" width="205" height="20" as="geometry" />
        </mxCell>
        <mxCell id="ShHbmUVOXLzFGARK76cm-11" value="downloadEntity(rowEntityMap)" style="rounded=1;whiteSpace=wrap;html=1;" vertex="1" parent="1">
          <mxGeometry x="85" y="220" width="175" height="20" as="geometry" />
        </mxCell>
        <mxCell id="ShHbmUVOXLzFGARK76cm-15" value="PageService" style="rounded=0;whiteSpace=wrap;html=1;fillColor=#dae8fc;strokeColor=#6c8ebf;" vertex="1" parent="1">
          <mxGeometry x="120" y="730" width="230" height="20" as="geometry" />
        </mxCell>
        <mxCell id="ShHbmUVOXLzFGARK76cm-80" style="edgeStyle=orthogonalEdgeStyle;curved=0;rounded=1;sketch=0;orthogonalLoop=1;jettySize=auto;html=1;exitX=0.75;exitY=1;exitDx=0;exitDy=0;entryX=1;entryY=0.5;entryDx=0;entryDy=0;entryPerimeter=0;" edge="1" parent="1" source="ShHbmUVOXLzFGARK76cm-16" target="ShHbmUVOXLzFGARK76cm-21">
          <mxGeometry relative="1" as="geometry">
            <Array as="points">
              <mxPoint x="302" y="1000" />
              <mxPoint x="302" y="1000" />
              <mxPoint x="302" y="1105" />
            </Array>
          </mxGeometry>
        </mxCell>
        <mxCell id="ShHbmUVOXLzFGARK76cm-16" value="selectPageByPageNameCode" style="whiteSpace=wrap;html=1;" vertex="1" parent="1">
          <mxGeometry x="100" y="910" width="270" height="40" as="geometry" />
        </mxCell>
        <mxCell id="ShHbmUVOXLzFGARK76cm-25" style="edgeStyle=orthogonalEdgeStyle;rounded=0;orthogonalLoop=1;jettySize=auto;html=1;exitX=0.5;exitY=0;exitDx=0;exitDy=0;entryX=0.5;entryY=1;entryDx=0;entryDy=0;" edge="1" parent="1" source="ShHbmUVOXLzFGARK76cm-20" target="ShHbmUVOXLzFGARK76cm-12">
          <mxGeometry relative="1" as="geometry" />
        </mxCell>
        <mxCell id="ShHbmUVOXLzFGARK76cm-20" value="PagesDAO" style="rounded=0;whiteSpace=wrap;html=1;fillColor=#dae8fc;strokeColor=#6c8ebf;" vertex="1" parent="1">
          <mxGeometry x="100" y="890" width="270" height="20" as="geometry" />
        </mxCell>
        <mxCell id="ShHbmUVOXLzFGARK76cm-79" style="edgeStyle=orthogonalEdgeStyle;curved=0;rounded=1;sketch=0;orthogonalLoop=1;jettySize=auto;html=1;exitX=0;exitY=0.5;exitDx=0;exitDy=0;exitPerimeter=0;entryX=0.156;entryY=1.023;entryDx=0;entryDy=0;entryPerimeter=0;" edge="1" parent="1" source="ShHbmUVOXLzFGARK76cm-21" target="ShHbmUVOXLzFGARK76cm-16">
          <mxGeometry relative="1" as="geometry">
            <Array as="points">
              <mxPoint x="142" y="1105" />
            </Array>
          </mxGeometry>
        </mxCell>
        <mxCell id="ShHbmUVOXLzFGARK76cm-21" value="db" style="shape=cylinder3;whiteSpace=wrap;html=1;boundedLbl=1;backgroundOutline=1;size=15;" vertex="1" parent="1">
          <mxGeometry x="210" y="1050" width="50" height="110" as="geometry" />
        </mxCell>
        <mxCell id="ShHbmUVOXLzFGARK76cm-26" value="pageNameCode" style="rounded=0;whiteSpace=wrap;html=1;" vertex="1" parent="1">
          <mxGeometry x="250" y="1010" width="120" height="30" as="geometry" />
        </mxCell>
        <mxCell id="ShHbmUVOXLzFGARK76cm-27" value="PagesEntity" style="rounded=0;whiteSpace=wrap;html=1;" vertex="1" parent="1">
          <mxGeometry x="85" y="1000" width="120" height="30" as="geometry" />
        </mxCell>
        <mxCell id="ShHbmUVOXLzFGARK76cm-32" value="BaseDataTableController" style="rounded=0;whiteSpace=wrap;html=1;fillColor=#dae8fc;strokeColor=#6c8ebf;" vertex="1" parent="1">
          <mxGeometry x="490" y="120" width="190" height="22" as="geometry" />
        </mxCell>
        <mxCell id="ShHbmUVOXLzFGARK76cm-33" value="getOutputLink" style="rounded=0;whiteSpace=wrap;html=1;" vertex="1" parent="1">
          <mxGeometry x="490" y="142" width="170" height="20" as="geometry" />
        </mxCell>
        <mxCell id="ShHbmUVOXLzFGARK76cm-34" value="isLinkAvailable" style="rounded=0;whiteSpace=wrap;html=1;" vertex="1" parent="1">
          <mxGeometry x="490" y="162" width="170" height="25" as="geometry" />
        </mxCell>
        <mxCell id="ShHbmUVOXLzFGARK76cm-35" value="isAllowedToDownload" style="rounded=0;whiteSpace=wrap;html=1;" vertex="1" parent="1">
          <mxGeometry x="490" y="187" width="170" height="23" as="geometry" />
        </mxCell>
        <mxCell id="ShHbmUVOXLzFGARK76cm-40" value="getPageByNameCode" style="rounded=0;whiteSpace=wrap;html=1;" vertex="1" parent="1">
          <mxGeometry x="590" y="310" width="280" height="60" as="geometry" />
        </mxCell>
        <mxCell id="ShHbmUVOXLzFGARK76cm-41" value="GoodPracticeController" style="rounded=0;whiteSpace=wrap;html=1;fillColor=#dae8fc;strokeColor=#6c8ebf;" vertex="1" parent="1">
          <mxGeometry x="590" y="290" width="230" height="20" as="geometry" />
        </mxCell>
        <mxCell id="ShHbmUVOXLzFGARK76cm-42" value="@ getOutputLink" style="rounded=0;whiteSpace=wrap;html=1;" vertex="1" parent="1">
          <mxGeometry x="645" y="380" width="105" height="20" as="geometry" />
        </mxCell>
        <mxCell id="ShHbmUVOXLzFGARK76cm-43" value="&amp;nbsp;@ isLinkAvailable" style="rounded=0;whiteSpace=wrap;html=1;" vertex="1" parent="1">
          <mxGeometry x="520" y="375" width="110" height="25" as="geometry" />
        </mxCell>
        <mxCell id="ShHbmUVOXLzFGARK76cm-44" value="&amp;nbsp;@ isAllowedToDownload" style="rounded=0;whiteSpace=wrap;html=1;" vertex="1" parent="1">
          <mxGeometry x="770" y="378.5" width="140" height="23" as="geometry" />
        </mxCell>
        <mxCell id="ShHbmUVOXLzFGARK76cm-50" value="getQuizLink" style="rounded=0;whiteSpace=wrap;html=1;" vertex="1" parent="1">
          <mxGeometry x="560" y="480" width="120" height="30" as="geometry" />
        </mxCell>
        <mxCell id="ShHbmUVOXLzFGARK76cm-51" value="isQuizAvailable" style="rounded=0;whiteSpace=wrap;html=1;" vertex="1" parent="1">
          <mxGeometry x="690" y="480" width="120" height="30" as="geometry" />
        </mxCell>
        <mxCell id="ShHbmUVOXLzFGARK76cm-52" value="isDownloadable" style="rounded=0;whiteSpace=wrap;html=1;" vertex="1" parent="1">
          <mxGeometry x="820" y="480" width="120" height="30" as="geometry" />
        </mxCell>
        <mxCell id="ShHbmUVOXLzFGARK76cm-53" value="PrekogiaDissertationUtil" style="rounded=0;whiteSpace=wrap;html=1;fillColor=#dae8fc;strokeColor=#6c8ebf;" vertex="1" parent="1">
          <mxGeometry x="555" y="450" width="160" height="20" as="geometry" />
        </mxCell>
        <mxCell id="ShHbmUVOXLzFGARK76cm-56" value="db" style="shape=cylinder3;whiteSpace=wrap;html=1;boundedLbl=1;backgroundOutline=1;size=15;" vertex="1" parent="1">
          <mxGeometry x="610" y="1270" width="50" height="110" as="geometry" />
        </mxCell>
        <mxCell id="ShHbmUVOXLzFGARK76cm-60" value="DissertationContentValueMapService" style="rounded=0;whiteSpace=wrap;html=1;fillColor=#dae8fc;strokeColor=#6c8ebf;" vertex="1" parent="1">
          <mxGeometry x="567.5" y="747" width="337.5" height="20" as="geometry" />
        </mxCell>
        <mxCell id="ShHbmUVOXLzFGARK76cm-61" value="getDissertationContentValueMapByDissertationAndContent" style="whiteSpace=wrap;html=1;" vertex="1" parent="1">
          <mxGeometry x="567.5" y="767" width="337.5" height="60" as="geometry" />
        </mxCell>
        <mxCell id="ShHbmUVOXLzFGARK76cm-67" style="edgeStyle=orthogonalEdgeStyle;curved=0;rounded=1;sketch=0;orthogonalLoop=1;jettySize=auto;html=1;exitX=0.75;exitY=1;exitDx=0;exitDy=0;entryX=1;entryY=0.5;entryDx=0;entryDy=0;entryPerimeter=0;" edge="1" parent="1" source="ShHbmUVOXLzFGARK76cm-62" target="ShHbmUVOXLzFGARK76cm-66">
          <mxGeometry relative="1" as="geometry">
            <Array as="points">
              <mxPoint x="823" y="1085" />
            </Array>
          </mxGeometry>
        </mxCell>
        <mxCell id="ShHbmUVOXLzFGARK76cm-62" value="selectDissertationContentValueMapByDissertationAndContent" style="whiteSpace=wrap;html=1;" vertex="1" parent="1">
          <mxGeometry x="562.5" y="910" width="347.5" height="40" as="geometry" />
        </mxCell>
        <mxCell id="ShHbmUVOXLzFGARK76cm-73" style="edgeStyle=orthogonalEdgeStyle;curved=0;rounded=1;sketch=0;orthogonalLoop=1;jettySize=auto;html=1;exitX=0.5;exitY=0;exitDx=0;exitDy=0;" edge="1" parent="1" source="ShHbmUVOXLzFGARK76cm-63" target="ShHbmUVOXLzFGARK76cm-61">
          <mxGeometry relative="1" as="geometry" />
        </mxCell>
        <mxCell id="ShHbmUVOXLzFGARK76cm-63" value="DissertationContentValueMapDAO" style="rounded=0;whiteSpace=wrap;html=1;fillColor=#dae8fc;strokeColor=#6c8ebf;" vertex="1" parent="1">
          <mxGeometry x="562.5" y="890" width="347.5" height="20" as="geometry" />
        </mxCell>
        <mxCell id="ShHbmUVOXLzFGARK76cm-68" style="edgeStyle=orthogonalEdgeStyle;curved=0;rounded=1;sketch=0;orthogonalLoop=1;jettySize=auto;html=1;exitX=0;exitY=0.5;exitDx=0;exitDy=0;exitPerimeter=0;entryX=0.25;entryY=1;entryDx=0;entryDy=0;" edge="1" parent="1" source="ShHbmUVOXLzFGARK76cm-66" target="ShHbmUVOXLzFGARK76cm-62">
          <mxGeometry relative="1" as="geometry">
            <Array as="points">
              <mxPoint x="649" y="1085" />
            </Array>
          </mxGeometry>
        </mxCell>
        <mxCell id="ShHbmUVOXLzFGARK76cm-66" value="db" style="shape=cylinder3;whiteSpace=wrap;html=1;boundedLbl=1;backgroundOutline=1;size=15;" vertex="1" parent="1">
          <mxGeometry x="700" y="1030" width="50" height="110" as="geometry" />
        </mxCell>
        <mxCell id="ShHbmUVOXLzFGARK76cm-70" value="DissertationContentValueMapEntity" style="rounded=0;whiteSpace=wrap;html=1;" vertex="1" parent="1">
          <mxGeometry x="490" y="990" width="210" height="30" as="geometry" />
        </mxCell>
        <mxCell id="ShHbmUVOXLzFGARK76cm-71" value="dissertation, dissertationTypeContent, dissertationTypeContentDetail, detailSetNumber" style="rounded=0;whiteSpace=wrap;html=1;" vertex="1" parent="1">
          <mxGeometry x="760" y="960" width="180" height="80" as="geometry" />
        </mxCell>
        <mxCell id="ShHbmUVOXLzFGARK76cm-78" style="edgeStyle=orthogonalEdgeStyle;curved=0;rounded=1;sketch=0;orthogonalLoop=1;jettySize=auto;html=1;exitX=0.5;exitY=0;exitDx=0;exitDy=0;" edge="1" parent="1" source="ShHbmUVOXLzFGARK76cm-75" target="ShHbmUVOXLzFGARK76cm-50">
          <mxGeometry relative="1" as="geometry" />
        </mxCell>
        <mxCell id="ShHbmUVOXLzFGARK76cm-75" value="Value" style="rounded=0;whiteSpace=wrap;html=1;" vertex="1" parent="1">
          <mxGeometry x="500" y="600" width="150" height="50" as="geometry" />
        </mxCell>
        <mxCell id="ShHbmUVOXLzFGARK76cm-76" value="" style="edgeStyle=orthogonalEdgeStyle;curved=0;rounded=1;sketch=0;orthogonalLoop=1;jettySize=auto;html=1;exitX=0.25;exitY=0;exitDx=0;exitDy=0;endArrow=none;entryX=0.5;entryY=1;entryDx=0;entryDy=0;" edge="1" parent="1" source="ShHbmUVOXLzFGARK76cm-60" target="ShHbmUVOXLzFGARK76cm-75">
          <mxGeometry relative="1" as="geometry">
            <mxPoint x="651.8749999999995" y="746.9999999999998" as="sourcePoint" />
            <mxPoint x="610" y="670" as="targetPoint" />
          </mxGeometry>
        </mxCell>
      </root>
    </mxGraphModel>
  </diagram>
</mxfile>
